<svg width="40" height="41" viewBox="0 0 40 41" fill="none" xmlns="http://www.w3.org/2000/svg">
<mask id="mask0_146_4731" style="mask-type:alpha" maskUnits="userSpaceOnUse" x="0" y="0" width="40" height="41">
<ellipse cx="19.5139" cy="20.3922" rx="19.5139" ry="20.3922" fill="#C4C4C4"/>
</mask>
<g mask="url(#mask0_146_4731)">
<rect width="40" height="41" fill="#F178B6"/>
<path d="M6.09258 13.7812H8.28008L12.3914 24.748L16.493 13.7812H18.6805L13.2508 28H11.5125L6.09258 13.7812ZM5.09648 13.7812H7.17656L7.53789 23.2734V28H5.09648V13.7812ZM17.5965 13.7812H19.6863V28H17.2352V23.2734L17.5965 13.7812ZM23.1965 13.7812H28.2258C29.3065 13.7812 30.2277 13.944 30.9895 14.2695C31.7512 14.5951 32.3339 15.0768 32.7375 15.7148C33.1477 16.3464 33.3527 17.1276 33.3527 18.0586C33.3527 18.7682 33.2225 19.3932 32.9621 19.9336C32.7017 20.474 32.3339 20.9297 31.8586 21.3008C31.3833 21.6654 30.8169 21.9486 30.1594 22.1504L29.4172 22.5117H24.8957L24.8762 20.5684H28.2648C28.8508 20.5684 29.3391 20.4642 29.7297 20.2559C30.1203 20.0475 30.4133 19.7643 30.6086 19.4062C30.8104 19.0417 30.9113 18.6315 30.9113 18.1758C30.9113 17.681 30.8137 17.2513 30.6184 16.8867C30.4296 16.5156 30.1366 16.2324 29.7395 16.0371C29.3423 15.8353 28.8378 15.7344 28.2258 15.7344H25.6477V28H23.1965V13.7812ZM31.3117 28L27.9719 21.6133L30.5402 21.6035L33.9289 27.873V28H31.3117Z" fill="white"/>
</g>
</svg>
